<svg width="127" height="30" viewBox="0 0 127 30" fill="none" xmlns="http://www.w3.org/2000/svg">
<path fill-rule="evenodd" clip-rule="evenodd" d="M75.2418 8.33586C74.6318 8.6119 74.2509 9.23105 74.2794 9.9L74.2994 9.91C74.3047 10.3326 74.4789 10.7355 74.7834 11.0286C75.0878 11.3218 75.497 11.4807 75.9194 11.47C76.589 11.4694 77.1909 11.0618 77.4401 10.4404C77.6893 9.81889 77.5357 9.10835 77.052 8.64534C76.5684 8.18232 75.8518 8.05982 75.2418 8.33586ZM39.2494 9.08H36.0394V22.08H39.2494V9.08ZM45.5294 12.04C42.5294 12.04 40.5294 13.97 40.5294 17.19C40.5294 20.48 42.4594 22.36 45.5294 22.36C48.5994 22.36 50.5294 20.41 50.5294 17.19C50.5294 13.97 48.5294 12.04 45.5294 12.04ZM47.3494 17.19C47.3494 15.42 46.6594 14.38 45.5594 14.38C44.4594 14.38 43.7794 15.38 43.7794 17.19C43.7794 19 44.4594 19.99 45.5594 19.99C46.6594 19.99 47.3694 19 47.3694 17.2L47.3494 17.19ZM54.9094 22.75H51.8094L51.8294 22.76C52.0094 24.55 53.7894 25.82 56.5694 25.83C59.6294 25.83 61.7094 24.36 61.7094 22.01V12.27H58.5294V13.8828C57.9865 12.7958 56.8464 12.1244 55.6194 12.19C53.1094 12.19 51.6194 14.11 51.6194 17.19C51.6194 20.27 53.1794 22.06 55.5294 22.06C56.7873 22.1522 57.9727 21.4657 58.5194 20.331V22.11C58.5194 23.09 57.8794 23.75 56.6494 23.75C55.9108 23.8447 55.1995 23.4359 54.9094 22.75ZM58.5294 17.19C58.5294 15.62 57.8094 14.63 56.6694 14.63C55.5294 14.63 54.8294 15.63 54.8294 17.19C54.8294 18.75 55.5194 19.67 56.6694 19.67C57.8194 19.67 58.5294 18.82 58.5294 17.19ZM67.9794 12.04C64.9794 12.04 62.9794 13.97 62.9794 17.19H62.9994C62.9994 20.48 64.9194 22.36 67.9794 22.36C71.0394 22.36 72.9794 20.41 72.9794 17.19C72.9794 13.97 70.9794 12.04 67.9794 12.04ZM69.7994 17.19C69.7994 15.42 69.0994 14.38 68.0094 14.38C66.9194 14.38 66.2294 15.38 66.2294 17.19C66.2294 19 66.9094 19.99 68.0094 19.99C69.1094 19.99 69.8194 19 69.8194 17.2L69.7994 17.19ZM74.2794 12.26H77.5294V22.12H74.3294L74.2794 12.26ZM85.3294 22.26C87.7794 22.26 89.2194 20.4 89.2194 17.19L89.2794 17.2C89.2794 13.98 87.8294 12.13 85.3094 12.15C84.009 12.0881 82.8093 12.8479 82.3094 14.05H82.2494V12.29H79.0594V25.29H82.2694V20.43H82.3294C82.8469 21.6086 84.0447 22.3392 85.3294 22.26ZM85.9494 17.19C85.9494 15.63 85.2194 14.62 84.0894 14.62C82.9594 14.62 82.2494 15.62 82.2394 17.19C82.2294 18.76 82.9594 19.75 84.0894 19.75C85.2194 19.75 86.0094 18.82 86.0094 17.2L85.9494 17.19ZM99.0794 15.34C99.0594 13.3 97.3894 12.03 94.6994 12.03L94.7594 12.04C92.0494 12.04 90.3694 13.29 90.3094 15.25C90.3094 16.76 91.3194 17.77 93.2494 18.18L95.1094 18.57C95.8794 18.73 96.1794 18.82 96.1794 19.35C96.1794 19.88 95.7394 20.18 94.7994 20.18C93.8594 20.18 93.2794 19.75 93.1894 19.02H90.0794C90.2094 21.03 91.9994 22.35 94.7494 22.35C97.4994 22.35 99.3494 20.99 99.3494 18.99C99.3494 17.5 98.5494 16.7 96.5494 16.28L94.4894 15.86C93.7494 15.71 93.3794 15.55 93.3794 15.04C93.3794 14.53 93.7994 14.19 94.6794 14.19C95.5594 14.19 96.1494 14.63 96.1494 15.34H99.0794ZM110.099 22.11H106.989V20.26H106.929C106.571 21.5311 105.378 22.383 104.059 22.31C103.082 22.3418 102.137 21.9548 101.463 21.2462C100.789 20.5376 100.449 19.5748 100.529 18.6V12.27H103.739V17.91C103.739 19.07 104.349 19.7 105.349 19.7C105.824 19.6964 106.274 19.4874 106.583 19.1268C106.892 18.7662 107.029 18.2896 106.959 17.82V12.27H110.159L110.099 22.11ZM114.769 12.26H111.649L111.669 22.12H114.879V16.3C114.827 15.8907 114.955 15.4788 115.229 15.1703C115.503 14.8618 115.897 14.6867 116.309 14.69C117.189 14.69 117.679 15.22 117.679 16.22V22.12H120.739V16.28C120.684 15.8753 120.808 15.4666 121.079 15.1609C121.35 14.8553 121.741 14.6833 122.149 14.69C123.059 14.69 123.529 15.25 123.529 16.25V22.12H126.759V15.43C126.826 14.544 126.511 13.6718 125.894 13.0322C125.277 12.3926 124.417 12.0462 123.529 12.08C122.171 12.0164 120.94 12.874 120.529 14.17H120.389C120.152 12.8709 118.965 11.9656 117.649 12.08C116.349 12.0535 115.194 12.9082 114.839 14.16H114.769V12.26Z" fill="#696871"/>
<path fill-rule="evenodd" clip-rule="evenodd" d="M29.6894 9.93C29.6896 5.8564 27.1896 2.20027 23.3935 0.722524C19.5974 -0.75522 15.2835 0.248397 12.5294 3.25H0.0494385V29.59H26.3994V17.28C28.4911 15.4091 29.6875 12.7363 29.6894 9.93ZM24.6194 9.93C24.6235 11.8804 23.4517 13.641 21.6509 14.3902C19.8501 15.1394 17.7753 14.7295 16.3947 13.3518C15.0142 11.9741 14.5999 9.90012 15.3454 8.09778C16.0908 6.29544 17.849 5.12 19.7994 5.12C22.4576 5.11999 24.6139 7.27189 24.6194 9.93ZM5.11944 24.52H21.3294V19.69C20.8237 19.7738 20.3121 19.8173 19.7994 19.82C14.3396 19.8145 9.91495 15.3898 9.90944 9.93C9.91383 9.39006 9.96401 8.85146 10.0594 8.32H5.11944V24.52Z" fill="#696871"/>
</svg>
