<svg width="119" height="24" viewBox="0 0 119 24" fill="none" xmlns="http://www.w3.org/2000/svg">
<path d="M38.4093 19.21C37.8146 19.2423 37.2262 19.0732 36.7393 18.73C36.3263 18.4239 36.0906 17.9338 36.1093 17.42V8.15003C36.0995 8.0705 36.1269 7.99087 36.1835 7.93421C36.2402 7.87754 36.3198 7.85018 36.3993 7.86003H38.0793C38.2693 7.86003 38.3593 7.96003 38.3593 8.15003V16.7C38.3593 17.08 38.5293 17.27 38.8793 17.27C39.0277 17.2762 39.1761 17.2593 39.3193 17.22C39.5193 17.22 39.6293 17.28 39.6393 17.46L39.7893 18.71C39.8039 18.7838 39.7859 18.8602 39.7399 18.9196C39.6939 18.9791 39.6244 19.0157 39.5493 19.02C39.1814 19.1416 38.7969 19.2057 38.4093 19.21Z" fill="#696871"/>
<path fill-rule="evenodd" clip-rule="evenodd" d="M41.8593 18.14C43.6006 19.5787 46.1181 19.5787 47.8593 18.14V18.13C49.3654 16.5594 49.3654 14.0807 47.8593 12.51C46.1152 11.0792 43.6034 11.0792 41.8593 12.51C40.3151 14.069 40.3151 16.5811 41.8593 18.14ZM46.2993 16.82C45.4878 17.5552 44.2509 17.5552 43.4393 16.82C42.7062 15.9771 42.7062 14.7229 43.4393 13.88C44.2509 13.1448 45.4878 13.1448 46.2993 13.88C47.0324 14.7229 47.0324 15.9771 46.2993 16.82Z" fill="#696871"/>
<path fill-rule="evenodd" clip-rule="evenodd" d="M58.5193 11.98C58.5193 11.79 58.4293 11.69 58.2393 11.69L56.5793 11.7C56.5015 11.6935 56.4248 11.7223 56.3705 11.7785C56.3162 11.8347 56.2901 11.9124 56.2993 11.99V12.15C55.6891 11.6833 54.9374 11.4398 54.1693 11.46C53.1158 11.4224 52.0917 11.8119 51.3293 12.54C49.8307 14.0904 49.8307 16.5496 51.3293 18.1C52.0882 18.8348 53.1138 19.2284 54.1693 19.19C54.9157 19.2112 55.6478 18.9825 56.2493 18.54V19.17C56.2697 19.6334 56.1 20.0849 55.7794 20.42C55.4285 20.7402 54.9637 20.906 54.4893 20.88C54.1002 20.8879 53.7152 20.7985 53.3693 20.62C53.0855 20.4666 52.8683 20.2137 52.7593 19.91C52.7043 19.775 52.5751 19.685 52.4293 19.68H50.7493C50.4793 19.68 50.4793 19.77 50.4793 19.97C50.62 20.7894 51.0944 21.5137 51.7893 21.97C52.5944 22.4919 53.5405 22.7537 54.4993 22.72C55.5609 22.7668 56.6008 22.4095 57.4093 21.72C58.1471 21.0739 58.5547 20.13 58.5193 19.15V11.98ZM55.7293 16.82C55.3827 17.2101 54.8809 17.4262 54.3593 17.41C53.8322 17.4253 53.3246 17.2098 52.9693 16.82C52.6107 16.4082 52.4213 15.8758 52.4393 15.33C52.4173 14.7788 52.611 14.2407 52.9793 13.83C53.3338 13.4391 53.8419 13.2234 54.3693 13.24C54.8861 13.223 55.384 13.4353 55.7293 13.82C56.4132 14.7031 56.4132 15.9369 55.7293 16.82Z" fill="#696871"/>
<path fill-rule="evenodd" clip-rule="evenodd" d="M61.1493 18.14C62.8934 19.5708 65.4052 19.5708 67.1493 18.14V18.13C68.6554 16.5594 68.6554 14.0807 67.1493 12.51C65.4039 11.0831 62.8948 11.0831 61.1493 12.51C59.642 14.084 59.642 16.566 61.1493 18.14ZM64.1593 17.37C63.6251 17.3865 63.1066 17.1884 62.7193 16.82C61.999 15.9724 61.999 14.7277 62.7193 13.88C63.1066 13.5117 63.6251 13.3136 64.1593 13.33C64.6901 13.3163 65.2046 13.5141 65.5893 13.88C66.3097 14.7277 66.3097 15.9724 65.5893 16.82C65.2046 17.1859 64.6901 17.3838 64.1593 17.37Z" fill="#696871"/>
<path fill-rule="evenodd" clip-rule="evenodd" d="M69.9793 9.99003C70.5261 10.4686 71.3426 10.4686 71.8893 9.99003C72.1316 9.76143 72.2689 9.44309 72.2689 9.11003C72.2689 8.77697 72.1316 8.45863 71.8893 8.23003C71.3379 7.76423 70.5308 7.76423 69.9793 8.23003C69.7371 8.45863 69.5998 8.77697 69.5998 9.11003C69.5998 9.44309 69.7371 9.76143 69.9793 9.99003ZM70.4293 18.73C70.9176 19.0704 71.5049 19.2392 72.0993 19.21C72.4902 19.2064 72.8781 19.1423 73.2493 19.02C73.3244 19.0157 73.3939 18.9791 73.4399 18.9196C73.4859 18.8602 73.5039 18.7838 73.4893 18.71L73.3393 17.46C73.3293 17.28 73.2193 17.22 73.0193 17.22C72.8726 17.2586 72.721 17.2755 72.5693 17.27C72.2293 17.27 72.0593 17.08 72.0593 16.7V11.98C72.0593 11.79 71.9693 11.69 71.7793 11.69H70.0993C70.0198 11.6802 69.9402 11.7075 69.8835 11.7642C69.8269 11.8209 69.7995 11.9005 69.8093 11.98V17.42C69.7917 17.9313 70.0228 18.4195 70.4293 18.73Z" fill="#696871"/>
<path fill-rule="evenodd" clip-rule="evenodd" d="M82.5293 12.53C81.7615 11.7978 80.7296 11.4081 79.6693 11.45C78.7436 11.4299 77.8503 11.7915 77.1993 12.45C76.856 11.7791 76.14 11.3836 75.3893 11.45C75.0213 11.4433 74.6553 11.5043 74.3093 11.63C74.1645 11.6721 74.0686 11.8096 74.0793 11.96V13.14C74.0793 13.3 74.1893 13.38 74.4093 13.38H74.7393C74.902 13.3562 75.0663 13.4106 75.1825 13.5268C75.2988 13.6431 75.3532 13.8074 75.3293 13.97V22.17C75.3148 22.2479 75.3396 22.3278 75.3956 22.3838C75.4515 22.4398 75.5315 22.4646 75.6093 22.45H77.2893C77.4793 22.45 77.5793 22.36 77.5793 22.17V18.56C78.1867 18.9985 78.9205 19.2267 79.6693 19.21C80.7316 19.2528 81.765 18.8589 82.5293 18.12C83.9965 16.5455 83.9965 14.1046 82.5293 12.53ZM79.4893 17.4095C78.9682 17.4095 78.4697 17.1966 78.1093 16.82C77.7481 16.394 77.559 15.8483 77.5793 15.29C77.5561 14.7313 77.7455 14.1846 78.1093 13.76C78.4697 13.3835 78.9682 13.1705 79.4893 13.1705C80.0105 13.1705 80.509 13.3835 80.8693 13.76C81.2478 14.1772 81.4455 14.7274 81.4193 15.29C81.4423 15.8522 81.2449 16.4011 80.8693 16.82C80.509 17.1966 80.0105 17.4095 79.4893 17.4095Z" fill="#696871"/>
<path d="M88.3493 19.21C87.4516 19.2469 86.5615 19.0322 85.7793 18.59C85.1436 18.2071 84.7167 17.5557 84.6193 16.82C84.6193 16.62 84.6893 16.52 84.9093 16.52H86.3793C86.5219 16.5256 86.6494 16.6106 86.7093 16.74C86.9193 17.28 87.4693 17.55 88.3493 17.55C88.6563 17.5641 88.962 17.5022 89.2393 17.37C89.4344 17.2819 89.5651 17.0936 89.5793 16.88C89.5793 16.62 89.4193 16.44 89.0993 16.32C88.7198 16.1937 88.3274 16.1099 87.9293 16.07C87.4578 16.0167 86.9902 15.9331 86.5293 15.82C86.0812 15.7186 85.6737 15.4852 85.3593 15.15C84.9852 14.6895 84.819 14.0943 84.9005 13.5066C84.9821 12.9188 85.304 12.3913 85.7893 12.05C86.5101 11.5909 87.3558 11.3672 88.2093 11.41C89.0357 11.3821 89.8533 11.5865 90.5693 12C91.1537 12.331 91.5578 12.9078 91.6693 13.57C91.6693 13.77 91.5793 13.87 91.3993 13.87H89.9193C89.7918 13.8776 89.6727 13.8061 89.6193 13.69C89.5204 13.4532 89.3343 13.2634 89.0993 13.16C88.8343 13.0214 88.5383 12.9525 88.2393 12.96C87.9462 12.9441 87.6538 13.0026 87.3893 13.13C87.1987 13.2036 87.072 13.3857 87.0693 13.59C87.0824 13.8708 87.2772 14.1101 87.5493 14.18C87.9334 14.3248 88.3326 14.4254 88.7393 14.48C89.207 14.5416 89.671 14.6284 90.1293 14.74C90.5775 14.8415 90.985 15.0748 91.2993 15.41C91.639 15.783 91.8154 16.2763 91.7893 16.78C91.8069 17.4832 91.4537 18.1439 90.8593 18.52C90.1122 18.9997 89.2367 19.2403 88.3493 19.21Z" fill="#696871"/>
<path d="M102.359 18.71C102.371 18.7818 102.353 18.8551 102.31 18.9134C102.266 18.9717 102.201 19.0102 102.129 19.02C101.764 19.1392 101.383 19.2033 100.999 19.21C100.226 19.2901 99.4678 18.9601 98.9993 18.34C98.2929 18.9473 97.3796 19.2589 96.4493 19.21C95.5759 19.2503 94.7261 18.9198 94.1093 18.3C93.4973 17.6511 93.176 16.781 93.2193 15.89V11.98C93.2193 11.79 93.3093 11.69 93.4993 11.69H95.1793C95.3693 11.69 95.4593 11.79 95.4593 11.98V15.59C95.4411 16.0398 95.5948 16.4796 95.8893 16.82C96.1867 17.1355 96.6061 17.3069 97.0393 17.29C97.482 17.3094 97.9141 17.151 98.2393 16.85C98.5474 16.5326 98.7103 16.1018 98.6893 15.66V11.98C98.6893 11.79 98.7793 11.69 98.9693 11.69H100.669C100.859 11.69 100.949 11.79 100.949 11.98V16.69C100.949 17.08 101.119 17.27 101.449 17.27C101.604 17.276 101.759 17.2592 101.909 17.22C101.986 17.1986 102.068 17.2133 102.132 17.2601C102.197 17.3069 102.236 17.3805 102.239 17.46L102.359 18.71Z" fill="#696871"/>
<path d="M118.249 18.71C118.267 18.7825 118.252 18.8593 118.208 18.9193C118.163 18.9793 118.094 19.0163 118.019 19.02C117.648 19.1409 117.26 19.205 116.869 19.21C116.275 19.2407 115.687 19.0718 115.199 18.73C114.771 18.4327 114.52 17.9412 114.529 17.42V15.07C114.55 14.6216 114.4 14.1819 114.109 13.84C113.825 13.5235 113.414 13.3511 112.989 13.37C112.606 13.3556 112.238 13.5177 111.989 13.81C111.725 14.1451 111.591 14.5639 111.609 14.99V18.68C111.609 18.87 111.519 18.97 111.329 18.97H109.639C109.56 18.9799 109.48 18.9525 109.424 18.8959C109.367 18.8392 109.339 18.7596 109.349 18.68V15.07C109.371 14.6265 109.233 14.1899 108.959 13.84C108.712 13.5425 108.346 13.3702 107.959 13.37C107.547 13.3534 107.147 13.5134 106.859 13.81C106.573 14.1344 106.426 14.5582 106.449 14.99V18.68C106.459 18.7596 106.432 18.8392 106.375 18.8959C106.318 18.9525 106.239 18.9799 106.159 18.97H104.529C104.339 18.97 104.249 18.87 104.249 18.68V13.97C104.273 13.8074 104.219 13.6431 104.103 13.5268C103.986 13.4106 103.822 13.3562 103.659 13.38H103.329C103.109 13.38 102.999 13.3 102.999 13.14V11.96C102.989 11.8096 103.084 11.6721 103.229 11.63C103.575 11.5043 103.941 11.4433 104.309 11.45C105.03 11.3886 105.722 11.7464 106.089 12.37C106.771 11.7236 107.692 11.3903 108.629 11.45C109.543 11.4054 110.423 11.7991 110.999 12.51C111.67 11.7817 112.631 11.3926 113.619 11.45C114.502 11.4087 115.361 11.7387 115.989 12.36C116.603 13.0077 116.925 13.8787 116.879 14.77V16.7C116.879 17.08 117.049 17.27 117.369 17.27C117.524 17.2773 117.68 17.2604 117.829 17.22C118.036 17.22 118.146 17.3 118.159 17.46L118.249 18.71Z" fill="#696871"/>
<path fill-rule="evenodd" clip-rule="evenodd" d="M0.989346 10.39C2.50743 4.28837 7.98667 0.00531006 14.2743 0.00531006C20.562 0.00531006 26.0413 4.28837 27.5593 10.39H26.3593C24.335 10.3602 22.3522 10.9652 20.6893 12.12C20.5934 12.1895 20.4932 12.253 20.3893 12.31H20.2493C20.1455 12.253 20.0453 12.1895 19.9493 12.12C16.5178 9.81255 12.0308 9.81255 8.59935 12.12C8.50338 12.1895 8.40318 12.253 8.29935 12.31H8.15935C8.05551 12.253 7.95531 12.1895 7.85935 12.12C6.19648 10.9652 4.21366 10.3602 2.18935 10.39H0.989346ZM24.1993 16.66C24.8154 16.1803 25.5788 15.9293 26.3593 15.95H27.9693V12.74H26.3593C24.9846 12.7234 23.6412 13.1513 22.5293 13.96C21.245 14.9069 19.4937 14.9069 18.2093 13.96C15.8744 12.3346 12.7743 12.3346 10.4393 13.96C9.155 14.9069 7.40369 14.9069 6.11935 13.96C4.99374 13.141 3.63114 12.7125 2.23935 12.74H0.579346V15.95H2.18935C2.96985 15.9293 3.73333 16.1803 4.34935 16.66C6.68029 18.2866 9.7784 18.2866 12.1093 16.66C12.7261 16.1818 13.4891 15.931 14.2693 15.95C15.0501 15.9277 15.8141 16.1788 16.4293 16.66C18.7643 18.2855 21.8644 18.2855 24.1993 16.66ZM26.3593 21.69C25.5788 21.6693 24.8154 21.9203 24.1993 22.4C21.8644 24.0255 18.7643 24.0255 16.4293 22.4C15.8141 21.9188 15.0501 21.6677 14.2693 21.69C13.4891 21.671 12.7261 21.9218 12.1093 22.4C9.7784 24.0266 6.68029 24.0266 4.34935 22.4C3.73333 21.9203 2.96985 21.6693 2.18935 21.69H0.579346V18.48H2.23935C3.63114 18.4525 4.99374 18.881 6.11935 19.7C7.40369 20.6469 9.155 20.6469 10.4393 19.7C12.7743 18.0746 15.8744 18.0746 18.2093 19.7C19.4937 20.6469 21.245 20.6469 22.5293 19.7C23.6412 18.8913 24.9846 18.4634 26.3593 18.48H27.9693V21.69H26.3593Z" fill="#696871"/>
</svg>
