<svg width="125" height="30" viewBox="0 0 125 30" fill="none" xmlns="http://www.w3.org/2000/svg">
<path d="M27.2594 10.53C27.6194 10.53 27.7394 10.66 27.7394 11.01V18.93H31.8094C32.1594 18.93 32.2894 19.06 32.2894 19.41V20.11C32.2894 20.46 32.1594 20.59 31.8094 20.59H26.4494C26.0994 20.59 25.9594 20.46 25.9594 20.11V11.01C25.9594 10.66 26.0994 10.53 26.4494 10.53H27.2594Z" fill="#696871"/>
<path fill-rule="evenodd" clip-rule="evenodd" d="M39.8394 10.32C37.2994 10.32 35.8394 11.71 35.8394 14.02V17.1C35.8394 19.41 37.3094 20.8 39.8394 20.8C42.3694 20.8 43.8394 19.41 43.8394 17.1V14.02C43.8394 11.71 42.3794 10.32 39.8394 10.32ZM39.8894 12.02C41.3494 12.02 42.1594 12.72 42.1594 14.02V17.12C42.1594 18.4 41.3494 19.12 39.8894 19.12C38.4294 19.12 37.6294 18.43 37.6294 17.12V14.02C37.6294 12.73 38.4294 12.02 39.8894 12.02Z" fill="#696871"/>
<path d="M55.7494 15.08C56.1394 15.08 56.2294 15.21 56.2294 15.56V17.46C56.2508 18.3664 55.8612 19.2339 55.1694 19.82C54.3211 20.4955 53.2515 20.8307 52.1694 20.76C49.5794 20.76 48.1694 19.37 48.1694 17.06V13.96C48.1694 11.68 49.6294 10.28 52.1694 10.28C54.1694 10.28 55.4694 11.07 56.0194 12.65C56.0818 12.7704 56.0837 12.9131 56.0247 13.0352C55.9656 13.1572 55.8525 13.2442 55.7194 13.27L54.9394 13.54C54.5994 13.66 54.4594 13.59 54.3394 13.24C53.9986 12.3613 53.1049 11.8259 52.1694 11.94C50.6994 11.94 49.8994 12.65 49.8994 13.94V17.12C49.8994 18.43 50.7094 19.12 52.1694 19.12C53.6294 19.12 54.5294 18.45 54.5294 17.47V16.73H52.3594C51.9994 16.73 51.8694 16.59 51.8694 16.24V15.56C51.8694 15.21 51.9994 15.08 52.3594 15.08H55.7494Z" fill="#696871"/>
<path fill-rule="evenodd" clip-rule="evenodd" d="M64.3594 10.32C61.8194 10.32 60.3594 11.71 60.3594 14.02V17.1C60.3594 19.41 61.8294 20.8 64.3594 20.8C66.8894 20.8 68.3594 19.41 68.3594 17.1V14.02C68.3594 11.71 66.8994 10.32 64.3594 10.32ZM64.4094 12.02C65.8594 12.02 66.6694 12.72 66.6694 14.02V17.12C66.6694 18.4 65.8694 19.12 64.4094 19.12C62.9494 19.12 62.1394 18.43 62.1394 17.12V14.02C62.1394 12.73 62.9594 12.02 64.4094 12.02Z" fill="#696871"/>
<path d="M73.0694 10.82C73.0694 10.6 73.1394 10.53 73.3594 10.53H73.8194C74.0394 10.53 74.0894 10.6 74.0894 10.82V20.3C74.0894 20.52 74.0894 20.59 73.8194 20.59H73.3594C73.1394 20.59 73.0694 20.52 73.0694 20.3V10.82Z" fill="#696871"/>
<path fill-rule="evenodd" clip-rule="evenodd" d="M86.3394 13.67C86.3394 11.9358 84.9336 10.53 83.1994 10.53H79.4694C79.2594 10.53 79.1794 10.6 79.1794 10.82V20.3C79.1794 20.52 79.2594 20.59 79.4694 20.59H79.9394C80.1494 20.59 80.1994 20.52 80.1994 20.3V16.81H83.1994C84.9336 16.81 86.3394 15.4042 86.3394 13.67ZM84.9973 14.73C84.6079 15.4045 83.8882 15.82 83.1094 15.82H80.1094V11.46H83.1094C83.8882 11.46 84.6079 11.8755 84.9973 12.55C85.3867 13.2245 85.3867 14.0555 84.9973 14.73Z" fill="#696871"/>
<path d="M94.1494 10.33C95.7348 10.155 97.2472 11.0413 97.8694 12.51C97.9494 12.67 97.8694 12.8 97.7094 12.88L97.2694 13.08C97.0894 13.15 97.0194 13.14 96.9094 12.95C96.4445 11.8608 95.3283 11.1975 94.1494 11.31C92.4594 11.31 91.5394 11.98 91.5394 13.18C91.5191 13.9383 92.0611 14.5955 92.8094 14.72C93.3472 14.8954 93.9049 15.0029 94.4694 15.04C95.1527 15.0765 95.8268 15.2146 96.4694 15.45C97.4847 15.7713 98.1358 16.7604 98.0294 17.82C98.0294 19.69 96.6694 20.82 94.1694 20.82C92.4797 21.0133 90.8843 20.0011 90.3394 18.39C90.3037 18.3178 90.302 18.2335 90.3349 18.16C90.3678 18.0865 90.4318 18.0315 90.5094 18.01L90.9494 17.85C91.0195 17.8214 91.0983 17.8235 91.1668 17.8558C91.2352 17.8881 91.287 17.9477 91.3094 18.02C91.7684 19.1793 92.9256 19.9076 94.1694 19.82C96.0594 19.82 96.9894 19.16 96.9894 17.82C97.0257 17.0926 96.5309 16.4455 95.8194 16.29C95.302 16.1357 94.7684 16.0417 94.2294 16.01L93.1494 15.87C92.8114 15.7983 92.4776 15.7081 92.1494 15.6C91.8252 15.5021 91.523 15.3425 91.2594 15.13C90.7224 14.6437 90.4293 13.9439 90.4594 13.22C90.5294 11.47 91.8394 10.33 94.1494 10.33Z" fill="#696871"/>
<path d="M103.419 17.17C103.508 18.638 104.724 19.7834 106.194 19.7834C107.665 19.7834 108.881 18.638 108.969 17.17V10.82C108.969 10.6 109.039 10.53 109.259 10.53H109.719C109.939 10.53 110.009 10.6 110.009 10.82V17.16C110.009 19.43 108.669 20.8 106.199 20.8C103.729 20.8 102.389 19.43 102.389 17.16V10.82C102.389 10.6 102.459 10.53 102.669 10.53H103.139C103.349 10.53 103.419 10.6 103.419 10.82V17.17Z" fill="#696871"/>
<path d="M123.809 10.53C124.029 10.53 124.099 10.6 124.099 10.82V20.3C124.099 20.52 124.029 20.59 123.809 20.59H123.389C123.179 20.59 123.109 20.52 123.109 20.3V14.53C123.109 13.6905 123.166 12.8519 123.279 12.02H123.219C122.907 12.7807 122.543 13.5191 122.129 14.23L119.979 18.02C119.926 18.1546 119.794 18.2421 119.649 18.24H119.369C119.222 18.2407 119.089 18.1544 119.029 18.02L116.849 14.19C116.462 13.4893 116.128 12.7606 115.849 12.01H115.789C115.892 12.8495 115.945 13.6943 115.949 14.54V20.3C115.949 20.52 115.879 20.59 115.659 20.59H115.269C115.049 20.59 114.979 20.52 114.979 20.3V10.82C114.979 10.6 115.049 10.53 115.269 10.53H115.629C115.798 10.5143 115.958 10.6064 116.029 10.76L119.529 16.98L123.009 10.82C123.119 10.61 123.179 10.58 123.399 10.58L123.809 10.53Z" fill="#696871"/>
<path fill-rule="evenodd" clip-rule="evenodd" d="M2.83938 1.51002V21.82C2.83938 22.0693 2.74034 22.3084 2.56406 22.4847C2.38778 22.661 2.14868 22.76 1.89938 22.76H1.67938C1.16023 22.76 0.73938 22.3392 0.73938 21.82V1.51002C0.744861 0.994779 1.16411 0.579988 1.67938 0.580017H1.89938C2.41465 0.579988 2.8339 0.994779 2.83938 1.51002ZM14.3697 14.3846C14.5682 14.1956 14.8356 14.0963 15.1094 14.11L15.0594 14.13C15.3504 14.1003 15.6398 14.1995 15.8514 14.4015C16.063 14.6035 16.1755 14.888 16.1594 15.18V20.68C16.1594 21.2599 15.6893 21.73 15.1094 21.73C14.5295 21.73 14.0594 21.2599 14.0594 20.68V15.11C14.059 14.8359 14.1712 14.5737 14.3697 14.3846ZM17.3694 17.28C17.3694 16.7277 17.8171 16.28 18.3694 16.28C18.6587 16.2534 18.9453 16.354 19.1546 16.5556C19.3639 16.7572 19.4751 17.0399 19.4594 17.33V18.54C19.4594 19.1172 18.9915 19.585 18.4144 19.585C17.8372 19.585 17.3694 19.1172 17.3694 18.54V17.28ZM9.46938 25.6V18.37C9.15667 18.6077 8.77202 18.7312 8.37938 18.72C8.01921 18.7111 7.67034 18.5925 7.37938 18.38V25.6C7.37938 26.1772 7.84724 26.645 8.42438 26.645C9.00152 26.645 9.46938 26.1772 9.46938 25.6ZM5.10938 21.11C4.74955 21.0992 4.40121 20.9808 4.10938 20.77V28.02C4.10938 28.5999 4.57948 29.07 5.15938 29.07C5.73928 29.07 6.20938 28.5999 6.20938 28.02V20.82C5.88283 21.0311 5.49754 21.1327 5.10938 21.11ZM11.7894 16.25C11.4127 16.2474 11.046 16.1287 10.7394 15.91V23.18C10.7394 23.7599 11.2095 24.23 11.7894 24.23C12.3693 24.23 12.8394 23.7599 12.8394 23.18V15.92C12.5221 16.1563 12.1349 16.2796 11.7394 16.27L11.7894 16.25ZM5.21938 20.34H4.99938C4.48023 20.34 4.05938 19.9192 4.05938 19.4V3.93002C4.06486 3.41478 4.48411 2.99999 4.99938 3.00002H5.21938C5.73465 2.99999 6.1539 3.41478 6.15938 3.93002V19.42C6.15938 19.9392 5.73853 20.36 5.21938 20.36V20.34ZM8.29938 17.96H8.52938C9.043 17.96 9.45938 17.5436 9.45938 17.03V6.33002C9.45941 5.81475 9.04462 5.3955 8.52938 5.39002H8.29938C8.05099 5.39 7.81291 5.48936 7.63821 5.66593C7.46351 5.84251 7.36671 6.08164 7.36938 6.33002V17.03C7.36938 17.5436 7.78576 17.96 8.29938 17.96ZM11.6294 15.51C11.1141 15.51 10.6949 15.0953 10.6894 14.58V8.82002C10.6728 8.56049 10.7644 8.30568 10.9426 8.1162C11.1207 7.92671 11.3693 7.81949 11.6294 7.82002H11.8494C12.3685 7.82002 12.7894 8.24087 12.7894 8.76002V14.56C12.7921 14.811 12.6942 15.0527 12.5176 15.2312C12.341 15.4096 12.1004 15.51 11.8494 15.51H11.6294ZM14.9394 13.36H15.1694C15.6846 13.3545 16.0994 12.9353 16.0994 12.42V10.93C16.0939 10.4148 15.6746 9.99999 15.1594 10H14.9394C14.4241 9.99999 14.0049 10.4148 13.9994 10.93V12.42C13.9994 12.9392 14.4202 13.36 14.9394 13.36Z" fill="#696871"/>
</svg>
