<svg width="119" height="28" viewBox="0 0 119 28" fill="none" xmlns="http://www.w3.org/2000/svg">
<path fill-rule="evenodd" clip-rule="evenodd" d="M70.879 7.20153C70.3125 7.45259 69.9533 8.02057 69.9694 8.64003V8.66003C69.9656 9.06694 70.1319 9.45696 70.4281 9.73603C70.7242 10.0151 71.1234 10.1579 71.5294 10.13C72.1489 10.1177 72.6998 9.73284 72.9246 9.15539C73.1494 8.57794 73.0037 7.92192 72.5556 7.49392C72.1075 7.06592 71.4455 6.95047 70.879 7.20153ZM37.3994 7.89003H34.3994V20.02H37.3994V7.89003ZM43.2694 10.65C40.4294 10.65 38.5894 12.44 38.5894 15.44C38.5894 18.49 40.3894 20.24 43.2694 20.24C46.1494 20.24 47.9494 18.44 47.9494 15.44C47.9494 12.44 46.1094 10.65 43.2694 10.65ZM44.9394 15.44C44.9394 13.79 44.2894 12.82 43.2694 12.82C42.2494 12.82 41.6094 13.82 41.6094 15.44C41.6094 17.06 42.2394 18.04 43.2694 18.04C44.2994 18.04 44.9394 17.12 44.9394 15.45V15.44ZM51.9594 20.61H49.0794V20.62C49.2494 22.28 50.8994 23.47 53.5494 23.47C56.3994 23.47 58.3294 22.11 58.3294 19.92V10.82H55.3294V12.49C54.8669 11.3848 53.7666 10.6831 52.5694 10.73C50.2694 10.73 48.8894 12.54 48.8894 15.41C48.8894 18.28 50.3394 19.95 52.5294 19.95C53.6891 20.013 54.7703 19.3635 55.2594 18.31H55.3194V19.99C55.3194 20.89 54.7194 21.51 53.5794 21.51C52.8997 21.6014 52.2408 21.2354 51.9594 20.61ZM55.3294 15.43C55.3294 13.97 54.6594 13.05 53.5994 13.05C52.5394 13.05 51.8894 13.96 51.8894 15.43C51.8894 16.9 52.5294 17.73 53.5994 17.73C54.6694 17.73 55.3294 16.92 55.3294 15.44V15.43ZM64.1394 10.64C61.2994 10.64 59.4594 12.43 59.4594 15.43V15.44C59.4594 18.49 61.2494 20.23 64.1394 20.23C67.0294 20.23 68.8294 18.43 68.8294 15.43C68.8294 12.43 66.9794 10.64 64.1394 10.64ZM65.8094 15.43C65.8094 13.78 65.1594 12.81 64.1394 12.81C63.1194 12.81 62.5294 13.82 62.5294 15.45C62.5294 17.08 63.1594 18.05 64.1794 18.05C65.1994 18.05 65.8094 17.12 65.8094 15.45V15.43ZM69.9694 10.84H72.9694V20.02H69.9694V10.84ZM80.2494 20.14C82.5294 20.14 83.8594 18.43 83.8594 15.43L83.8994 15.45C83.8994 12.45 82.5294 10.73 80.2294 10.69C79.0226 10.6362 77.9112 11.3438 77.4494 12.46H77.3894V10.82H74.3894V22.96H77.3894V18.44H77.4494C77.9336 19.538 79.0518 20.2169 80.2494 20.14ZM80.8594 15.43C80.8594 13.97 80.1894 13.04 79.1394 13.04C78.0894 13.04 77.4194 13.98 77.4094 15.43C77.3994 16.88 78.0894 17.81 79.1394 17.81C80.1894 17.81 80.8594 16.9 80.8594 15.45V15.43ZM93.0794 13.7C93.0094 11.81 91.4994 10.63 89.0094 10.63V10.65C86.5294 10.65 84.9194 11.82 84.8994 13.62C84.8994 15.02 85.8394 15.97 87.6294 16.34L89.3594 16.71C90.0794 16.86 90.3594 16.96 90.3594 17.44C90.3594 17.92 89.9594 18.21 89.0794 18.21C88.1994 18.21 87.6594 17.81 87.5694 17.13H84.6794C84.8094 19 86.4794 20.22 89.0294 20.22C91.5794 20.22 93.3094 19 93.3094 17.1C93.3094 15.71 92.5294 14.97 90.6994 14.58L88.7794 14.19C88.1094 14.05 87.7794 13.9 87.7794 13.43C87.7794 12.96 88.1494 12.64 88.9794 12.64C89.8094 12.64 90.3494 13.05 90.3494 13.7H93.0794ZM103.319 20H100.429V18.29H100.369C100.042 19.4729 98.9348 20.268 97.7094 20.2C96.7872 20.2524 95.8875 19.9026 95.2431 19.2408C94.5986 18.5791 94.2726 17.6705 94.3494 16.75V10.82H97.3494V16.06C97.3494 17.15 97.9094 17.73 98.8394 17.73C99.2806 17.7309 99.7007 17.5413 99.9919 17.2099C100.283 16.8785 100.417 16.4374 100.359 16V10.82H103.359L103.319 20ZM107.669 10.82H104.769L104.719 20.02H107.719V14.61C107.674 14.2296 107.793 13.8477 108.047 13.561C108.301 13.2743 108.666 13.1101 109.049 13.11C109.869 13.11 110.319 13.61 110.319 14.53V20.02H113.169V14.59C113.12 14.2142 113.236 13.8355 113.487 13.5517C113.739 13.2679 114.1 13.1068 114.479 13.11C115.319 13.11 115.769 13.57 115.769 14.57V20.02H118.769V13.77C118.829 12.9467 118.537 12.1365 117.965 11.5414C117.393 10.9464 116.594 10.6223 115.769 10.65C114.483 10.5948 113.323 11.4178 112.949 12.65H112.889C112.69 11.4209 111.581 10.5506 110.339 10.65C109.129 10.6277 108.057 11.4249 107.729 12.59H107.669V10.82Z" fill="#696871"/>
<path fill-rule="evenodd" clip-rule="evenodd" d="M24.0094 5.22003C24.8269 6.19196 25.5005 7.27639 26.0094 8.44003C26.7507 10.1366 27.132 11.9685 27.1294 13.82C27.1239 21.2934 21.0727 27.3535 13.5994 27.37C11.8605 27.3691 10.1384 27.0294 8.52939 26.37C7.38174 25.914 6.30439 25.2979 5.32939 24.54C1.18237 21.3796 -0.77959 16.1174 0.286103 11.0135C1.35179 5.9095 5.25548 1.87207 10.3207 0.635107C15.3858 -0.601855 20.7111 1.18179 24.0094 5.22003ZM18.1094 4.01003C16.6936 3.35117 15.1509 3.00986 13.5894 3.01003L13.5994 2.99003C9.89642 2.98727 6.45021 4.88181 4.46836 8.00977C2.4865 11.1377 2.24534 15.063 3.82939 18.41C4.28108 17.9355 4.55943 17.3224 4.61939 16.67C4.9831 14.1574 6.9568 12.1837 9.46939 11.82C10.887 11.6915 12.0191 10.5844 12.1794 9.17003C12.5431 6.65744 14.5168 4.68374 17.0294 4.32003C17.4012 4.26338 17.7642 4.1592 18.1094 4.01003ZM5.31939 20.82C5.35939 20.7834 5.39939 20.7478 5.4394 20.7122C5.51937 20.6412 5.59941 20.57 5.67939 20.49C6.56904 19.6275 7.1401 18.4889 7.29939 17.26C7.36397 16.5693 7.67239 15.9241 8.16939 15.44C8.64763 14.9422 9.29136 14.6363 9.97939 14.58C12.492 14.2163 14.4657 12.2426 14.8294 9.73003C14.8726 9.00754 15.1827 8.32687 15.6994 7.82003C16.1894 7.33188 16.8393 7.03713 17.5294 6.99003C18.6533 6.83539 19.7015 6.33574 20.5294 5.56003C21.472 6.3421 22.2707 7.28292 22.8894 8.34003C22.8514 8.39138 22.8078 8.43833 22.7594 8.48003C22.2821 8.98222 21.6392 9.29479 20.9494 9.36003C18.4337 9.71747 16.4568 11.6943 16.0994 14.21C15.9541 15.6294 14.8293 16.75 13.4094 16.89C10.8898 17.2509 8.90579 19.2227 8.52939 21.74C8.47557 22.2288 8.30773 22.698 8.03939 23.11C7.01338 22.5009 6.09447 21.7272 5.31939 20.82ZM10.5894 24.26C11.5648 24.5398 12.5747 24.6811 13.5894 24.68V24.63C16.9385 24.617 20.0927 23.0538 22.1315 20.3968C24.1703 17.7397 24.8637 14.2883 24.0094 11.05C23.2502 11.5868 22.3714 11.9301 21.4494 12.05C20.0334 12.1945 18.9139 13.3141 18.7694 14.73C18.4046 17.2458 16.4259 19.2204 13.9094 19.58C12.4934 19.7245 11.3739 20.8441 11.2294 22.26C11.14 22.9602 10.923 23.638 10.5894 24.26Z" fill="#696871"/>
</svg>
