<svg width="101" height="48" viewBox="0 0 101 48" fill="none" xmlns="http://www.w3.org/2000/svg">
<path d="M0.319458 28.61H3.31946V43.32H0.319458V28.61Z" fill="#696871"/>
<path fill-rule="evenodd" clip-rule="evenodd" d="M8.34899 33.3394C6.35389 34.169 5.05541 36.1193 5.05946 38.28C5.04592 39.6994 5.60451 41.0646 6.60919 42.0674C7.61388 43.0702 8.98004 43.6262 10.3995 43.61C12.5602 43.61 14.508 42.3079 15.3339 40.3112C16.1599 38.3146 15.7012 36.017 14.1719 34.4905C12.6426 32.9641 10.3441 32.5097 8.34899 33.3394ZM10.3605 36.0203C11.6337 35.9985 12.6865 37.007 12.7195 38.28C12.7532 38.9105 12.5217 39.5263 12.081 39.9784C11.6403 40.4305 11.0306 40.6777 10.3995 40.66C9.12606 40.6596 8.09101 39.6328 8.08032 38.3595C8.06962 37.0861 9.08728 36.0422 10.3605 36.0203Z" fill="#696871"/>
<path fill-rule="evenodd" clip-rule="evenodd" d="M27.7995 42.82V33.24L24.8495 33.27V34.27C24.1311 33.3939 23.0413 32.9083 21.9095 32.96C19.0818 32.96 16.7895 35.2523 16.7895 38.08C16.7895 40.9077 19.0818 43.2 21.9095 43.2C23.0422 43.2566 24.1341 42.77 24.8495 41.89V42.82C24.9076 43.438 24.6754 44.048 24.2211 44.471C23.7667 44.894 23.1418 45.082 22.5295 44.98C21.5901 45.0577 20.6984 44.5544 20.2795 43.71L17.6995 45.2C18.7079 46.8415 20.5482 47.7829 22.4695 47.64C25.1495 47.64 27.7995 46.21 27.7995 42.82ZM23.4146 35.7557C24.3224 36.1651 24.8903 37.085 24.8495 38.08C24.868 38.7238 24.6134 39.3454 24.1485 39.7913C23.6837 40.2371 23.0519 40.4655 22.4095 40.42C21.4136 40.4192 20.5183 39.8133 20.1472 38.8892C19.7762 37.9651 20.0039 36.9082 20.7226 36.219C21.4413 35.5297 22.5068 35.3463 23.4146 35.7557Z" fill="#696871"/>
<path fill-rule="evenodd" clip-rule="evenodd" d="M32.819 33.3394C30.8239 34.169 29.5254 36.1193 29.5295 38.28C29.5159 39.6994 30.0745 41.0646 31.0792 42.0674C32.0839 43.0702 33.45 43.6262 34.8695 43.61C37.0302 43.61 38.978 42.3079 39.8039 40.3112C40.6299 38.3146 40.1712 36.017 38.6419 34.4905C37.1126 32.9641 34.8141 32.5097 32.819 33.3394ZM34.8305 36.0203C36.1037 35.9985 37.1565 37.007 37.1895 38.28H37.1695C37.2029 38.9069 36.9741 39.5195 36.5378 39.9709C36.1015 40.4224 35.4971 40.672 34.8695 40.66C33.5961 40.6596 32.561 39.6328 32.5503 38.3595C32.5396 37.0861 33.5573 36.0422 34.8305 36.0203Z" fill="#696871"/>
<path fill-rule="evenodd" clip-rule="evenodd" d="M43.4195 28.72C42.4143 28.72 41.5995 29.5348 41.5995 30.54C41.6049 31.5429 42.4166 32.3545 43.4195 32.36C44.4246 32.36 45.2395 31.5452 45.2395 30.54C45.2395 29.5348 44.4246 28.72 43.4195 28.72ZM44.9095 33.24H41.9095V43.32H44.9095V33.24Z" fill="#696871"/>
<path fill-rule="evenodd" clip-rule="evenodd" d="M56.6935 41.9458C57.5965 40.9452 58.0629 39.6258 57.9895 38.28C58.0602 36.9359 57.5925 35.619 56.6898 34.6206C55.7871 33.6222 54.5239 33.0246 53.1795 32.96C52.0467 32.9056 50.948 33.3561 50.1795 34.19V33.24H47.1795V47.38H50.1795V42.38C50.948 43.2139 52.0467 43.6644 53.1795 43.61C54.5257 43.5454 55.7905 42.9464 56.6935 41.9458ZM52.57 35.9409C53.8796 35.9298 54.9563 36.9707 54.9895 38.28H54.9695C55.017 38.9423 54.7759 39.5929 54.3083 40.0643C53.8407 40.5358 53.1921 40.7821 52.5295 40.74C51.2202 40.7068 50.1793 39.6302 50.1903 38.3205C50.2014 37.0109 51.2603 35.9519 52.57 35.9409Z" fill="#696871"/>
<path d="M67.3295 40.3C67.3295 42.62 65.3295 43.61 63.1295 43.61C61.3315 43.7692 59.6173 42.8191 58.7995 41.21L61.4195 39.72C61.6386 40.4695 62.3505 40.9649 63.1295 40.91C63.8595 40.91 64.2195 40.68 64.2195 40.28C64.2195 39.17 59.2195 39.76 59.2195 36.28C59.2195 34.08 61.0795 32.97 63.2195 32.97C64.8276 32.9211 66.3358 33.748 67.1595 35.13L64.5295 36.51C64.2921 35.9704 63.7589 35.6215 63.1695 35.62C62.6495 35.62 62.3295 35.82 62.3295 36.19C62.3695 37.34 67.3295 36.57 67.3295 40.3Z" fill="#696871"/>
<path d="M78.3695 33.24V43.32H75.3695V42.38C74.6616 43.2272 73.591 43.6844 72.4895 43.61C70.4895 43.61 68.7195 42.16 68.7195 39.43V33.24H71.7195V38.99C71.666 39.4862 71.8387 39.9802 72.1897 40.335C72.5407 40.6899 73.0327 40.868 73.5295 40.82C74.6295 40.82 75.3995 40.18 75.3995 38.75V33.24H78.3695Z" fill="#696871"/>
<path d="M95.7095 37.14V43.32H92.7095V37.4C92.7095 36.4 92.2195 35.74 91.2595 35.74C90.2995 35.74 89.6795 36.45 89.6795 37.64V43.32H86.6795V37.4C86.6795 36.4 86.1995 35.74 85.2295 35.74C84.2595 35.74 83.6595 36.45 83.6595 37.64V43.32H80.6595V33.24H83.6595V34.17C84.2965 33.3355 85.3126 32.8801 86.3595 32.96C87.412 32.9089 88.4141 33.4138 88.9995 34.29C89.6797 33.3745 90.7823 32.8723 91.9195 32.96C94.1995 32.96 95.7095 34.62 95.7095 37.14Z" fill="#696871"/>
<path d="M98.2695 33.18C99.5066 33.18 100.509 32.1771 100.509 30.94C100.509 29.7029 99.5066 28.7 98.2695 28.7C97.0323 28.7 96.0295 29.7029 96.0295 30.94C96.0295 32.1771 97.0323 33.18 98.2695 33.18Z" fill="#696871"/>
<path d="M34.2695 20.98C40.0629 20.98 44.7595 16.2835 44.7595 10.49C44.7595 4.69653 40.0629 0 34.2695 0C28.476 0 23.7795 4.69653 23.7795 10.49C23.7795 16.2835 28.476 20.98 34.2695 20.98Z" fill="#696871"/>
<path d="M57.7195 20.98C63.5129 20.98 68.2095 16.2835 68.2095 10.49C68.2095 4.69653 63.5129 0 57.7195 0C51.926 0 47.2295 4.69653 47.2295 10.49C47.2295 16.2835 51.926 20.98 57.7195 20.98Z" fill="#696871"/>
<path d="M0.339458 0H21.3095V20.97H0.339458V0Z" fill="#696871"/>
</svg>
